<svg xmlns="http://www.w3.org/2000/svg" width="465" height="100" viewBox="0 0 465 100">
  <g id="グループ_1515" data-name="グループ 1515" transform="translate(-408 -2214)">
    <rect id="長方形_1265" data-name="長方形 1265" width="465" height="100" rx="50" transform="translate(408 2214)" fill="#ea5520"/>
    <text id="トッピングを選ぶ" transform="translate(521 2275)" fill="#fff8f8" font-size="30" font-family="MS-Gothic, MS Gothic"><tspan x="0" y="0">トッピングを</tspan><tspan y="0">選</tspan><tspan y="0">ぶ</tspan></text>
    <path id="Icon_awesome-chevron-right" data-name="Icon awesome-chevron-right" d="M20.073,19.193,6.408,32.858a1.687,1.687,0,0,1-2.386,0L2.427,31.264a1.687,1.687,0,0,1,0-2.384L13.254,18,2.425,7.119a1.687,1.687,0,0,1,0-2.384L4.021,3.142a1.687,1.687,0,0,1,2.386,0L20.072,16.807A1.688,1.688,0,0,1,20.073,19.193Z" transform="translate(824.43 2246.352)" fill="#fff"/>
  </g>
</svg>
