<svg xmlns="http://www.w3.org/2000/svg" width="28.413" height="28.414" viewBox="0 0 28.413 28.414">
  <path id="Icon_awesome-phone" data-name="Icon awesome-phone" d="M24.945,1.244,19.687.03a1.221,1.221,0,0,0-1.39.7L15.87,6.4a1.21,1.21,0,0,0,.349,1.416l3.064,2.508a18.738,18.738,0,0,1-8.959,8.959L7.816,16.214A1.212,1.212,0,0,0,6.4,15.865L.738,18.292a1.228,1.228,0,0,0-.708,1.4l1.213,5.258a1.213,1.213,0,0,0,1.183.94A23.456,23.456,0,0,0,25.886,2.427,1.212,1.212,0,0,0,24.945,1.244Z" transform="translate(1.278 1.278)" fill="none" stroke="#ea5520" stroke-width="2.5"/>
</svg>
