<svg xmlns="http://www.w3.org/2000/svg" width="151.01" height="58.98" viewBox="0 0 151.01 58.98">
  <defs>
    <style>
      .cls-1 {
        font-size: 51.02px;
        font-family: Active-Regular, Active;
        letter-spacing: 0.09em;
      }

      .cls-1, .cls-5 {
        fill: #198b86;
      }

      .cls-2 {
        letter-spacing: 0.1em;
      }

      .cls-3 {
        letter-spacing: 0.08em;
      }

      .cls-4 {
        letter-spacing: 0.1em;
      }
    </style>
  </defs>
  <g id="レイヤー_2" data-name="レイヤー 2">
    <g id="NEWS_BLOG" data-name="NEWS&amp;BLOG">
      <g>
        <text class="cls-1" transform="translate(0.01 43.37)">m<tspan class="cls-2" x="29.19" y="0">o</tspan><tspan class="cls-3" x="52.35" y="0">r</tspan><tspan class="cls-4" x="70.77" y="0">e</tspan></text>
        <path class="cls-5" d="M143.09,37.08a8.15,8.15,0,0,0,2.17,1.22,20.26,20.26,0,0,0,3.48,1.58,4.92,4.92,0,0,1,1.93,1.36c.57.45.39.9-.32,1.16a9.42,9.42,0,0,0-1.88,1.07,16.69,16.69,0,0,1-4.64,2.18c-.53.14-1.27.35-1.63-.15s.27-1,.59-1.43.87-1,1.4-1.52a14.83,14.83,0,0,0-2.91-.24c-2.53-.11-40.06.24-42.56.33a7,7,0,0,1-2.5-.24c-.71-.23-.83-.68-.29-1.19a1,1,0,0,1,.77-.35c2.56-.18,40.09-.48,42.64-.27,1.46.12,2.92.12,4.37.18a2.34,2.34,0,0,0,1.11-.18,1.64,1.64,0,0,0-1.13-.62,7.35,7.35,0,0,1-3.25-2.15c-.41-.44-.32-1.13.24-1.21C141.51,36.49,142.32,36.25,143.09,37.08Z"/>
      </g>
    </g>
  </g>
</svg>
