<svg xmlns="http://www.w3.org/2000/svg" width="220" height="180" viewBox="0 0 220 180">
  <defs>
    <style>
      .cls-1, .cls-2 {
        fill: #fff;
      }

      .cls-2 {
        font-size: 36.85px;
        font-family: Roboto-Regular, Roboto;
      }

      .cls-3 {
        fill: none;
        stroke: #2bac38;
        stroke-miterlimit: 10;
        stroke-width: 2.83px;
      }
    </style>
  </defs>
  <g id="レイヤー_3" data-name="レイヤー 3">
    <path class="cls-1" d="M158.35,165.92,112.67,61.1a3.64,3.64,0,0,0-3.36-2.1,4.15,4.15,0,0,0-.93.11l-37,9.07a3.47,3.47,0,0,0-2.69,2.95l-7.31,76a3.29,3.29,0,0,0,1.78,3.2l53,28.81a3.92,3.92,0,0,0,1.84.46,3.69,3.69,0,0,0,.93-.11l37-9.07a3.58,3.58,0,0,0,2.31-1.74A3.14,3.14,0,0,0,158.35,165.92Zm-19-25.56-14.19-7.47-6.61-15.18,14.19,7.48ZM131,121.17l-14.19-7.47-6.61-15.17L124.42,106Zm-19.3,7.71,6.61,15.17-14.59-7.69-6.61-15.17Zm-16.34-11.7L88.78,102l14.58,7.68L110,124.86ZM122.67,102l-14.19-7.47-6.61-15.17,14.19,7.47ZM105.88,66.68l1.81,1,6.62,15.17-14.19-7.48-2.85-6.54Zm-4.26,39L87,98,80.42,82.82,95,90.51Zm-15-34.29L93.26,86.5,78.67,78.81l-2.15-4.93ZM68.83,145.62l5.78-60.08.69-.09,36.39,83.47Zm36.67-5.25,14.59,7.69,6.61,15.17-14.59-7.69Zm14,32-5.61-12.86,14.59,7.68,1.17,2.69ZM127,136.9l14.19,7.47,6.61,15.17-14.18-7.47Zm13.27,30.43-4.91-11.25,14.19,7.47.59,1.36Z"/>
    <text class="cls-2" transform="translate(40.73 31.64)">STEP 03</text>
    <line class="cls-3" x1="90.59" y1="46.25" x2="129.41" y2="46.25"/>
  </g>
</svg>
