<svg xmlns="http://www.w3.org/2000/svg" width="220" height="180" viewBox="0 0 220 180">
  <defs>
    <style>
      .cls-1 {
        font-size: 36.85px;
        font-family: Roboto-Regular, Roboto;
      }

      .cls-1, .cls-2 {
        fill: #fff;
      }

      .cls-2, .cls-3 {
        stroke: #fff;
      }

      .cls-2 {
        stroke-miterlimit: 10;
      }

      .cls-3 {
        fill: none;
        stroke-linecap: round;
        stroke-linejoin: round;
        stroke-width: 8.5px;
      }
    </style>
  </defs>
  <g id="レイヤー_2" data-name="レイヤー 2">
    <text class="cls-1" transform="translate(40.73 31.64)">STEP 02</text>
    <rect class="cls-2" x="82.34" y="93.17" width="39.79" height="6.63"/>
    <rect class="cls-2" x="82.34" y="117.49" width="39.79" height="6.63"/>
    <rect class="cls-2" x="82.34" y="141.8" width="24.31" height="6.63"/>
    <polyline class="cls-3" points="151.12 86 151.12 68 58.88 68 58.88 176.37 151.12 176.37 151.12 145.12"/>
    <path class="cls-2" d="M173.11,96.42l-4.4-4.4A6.84,6.84,0,0,0,159,92l-4.12,4.12L169,110.23l4.12-4.12A6.84,6.84,0,0,0,173.11,96.42Z"/>
    <polygon class="cls-2" points="116.27 134.78 116.27 148.86 130.36 148.86 165.15 114.07 151.06 99.98 116.27 134.78"/>
  </g>
</svg>
